<?xml version="1.0" encoding="UTF-8" standalone="no"?>
<svg
   xmlns:dc="http://purl.org/dc/elements/1.1/"
   xmlns:cc="http://creativecommons.org/ns#"
   xmlns:rdf="http://www.w3.org/1999/02/22-rdf-syntax-ns#"
   xmlns:svg="http://www.w3.org/2000/svg"
   xmlns="http://www.w3.org/2000/svg"
   xmlns:xlink="http://www.w3.org/1999/xlink"
   xmlns:sodipodi="http://sodipodi.sourceforge.net/DTD/sodipodi-0.dtd"
   xmlns:inkscape="http://www.inkscape.org/namespaces/inkscape"
   width="460.8pt"
   height="345.6pt"
   viewBox="0 0 460.8 345.6"
   version="1.1"
   id="svg362"
   sodipodi:docname="PCA_CreAKI-CreCtrl.svg"
   inkscape:version="1.0.2-2 (e86c870879, 2021-01-15)">
  <sodipodi:namedview
     pagecolor="#ffffff"
     bordercolor="#666666"
     borderopacity="1"
     objecttolerance="10"
     gridtolerance="10"
     guidetolerance="10"
     inkscape:pageopacity="0"
     inkscape:pageshadow="2"
     inkscape:window-width="1920"
     inkscape:window-height="1017"
     id="namedview364"
     showgrid="false"
     inkscape:zoom="0.92230901"
     inkscape:cx="393.98466"
     inkscape:cy="240.1444"
     inkscape:window-x="-8"
     inkscape:window-y="-8"
     inkscape:window-maximized="1"
     inkscape:current-layer="svg362" />
  <metadata
     id="metadata2">
    <rdf:RDF>
      <cc:Work>
        <dc:type
           rdf:resource="http://purl.org/dc/dcmitype/StillImage" />
        <dc:date>2024-06-23T15:23:32.479275</dc:date>
        <dc:format>image/svg+xml</dc:format>
        <dc:creator>
          <cc:Agent>
            <dc:title>Matplotlib v3.8.0, https://matplotlib.org/</dc:title>
          </cc:Agent>
        </dc:creator>
      </cc:Work>
    </rdf:RDF>
  </metadata>
  <defs
     id="defs6">
    <style
       type="text/css"
       id="style4">*{stroke-linejoin: round; stroke-linecap: butt}</style>
  </defs>
  <g
     id="figure_1">
    <g
       id="patch_1">
      <path
         d="M 0 345.6  L 460.8 345.6  L 460.8 0  L 0 0  z "
         style="fill: #ffffff"
         id="path8" />
    </g>
    <g
       id="axes_1">
      <g
         id="patch_2">
        <path
           d="M 57.6 307.584  L 414.72 307.584  L 414.72 41.472  L 57.6 41.472  z "
           style="fill: #ffffff"
           id="path11" />
      </g>
      <g
         id="PathCollection_1">
        <defs
           id="defs15">
          <path
             id="mcf9fb4a490"
             d="M 0 3  C 0.795609 3 1.55874 2.683901 2.12132 2.12132  C 2.683901 1.55874 3 0.795609 3 0  C 3 -0.795609 2.683901 -1.55874 2.12132 -2.12132  C 1.55874 -2.683901 0.795609 -3 0 -3  C -0.795609 -3 -1.55874 -2.683901 -2.12132 -2.12132  C -2.683901 -1.55874 -3 -0.795609 -3 0  C -3 0.795609 -2.683901 1.55874 -2.12132 2.12132  C -1.55874 2.683901 -0.795609 3 0 3  z "
             style="stroke: #1f77b4" />
        </defs>
        <g
           clip-path="url(#pc9e30ce141)"
           id="g25">
          <use
             xlink:href="#mcf9fb4a490"
             x="387.754196"
             y="140.318832"
             style="fill: #1f77b4; stroke: #1f77b4"
             id="use17" />
          <use
             xlink:href="#mcf9fb4a490"
             x="398.487273"
             y="295.488"
             style="fill: #1f77b4; stroke: #1f77b4"
             id="use19" />
          <use
             xlink:href="#mcf9fb4a490"
             x="382.43406"
             y="204.648493"
             style="fill: #1f77b4; stroke: #1f77b4"
             id="use21" />
          <use
             xlink:href="#mcf9fb4a490"
             x="348.908142"
             y="53.568"
             style="fill: #1f77b4; stroke: #1f77b4"
             id="use23" />
        </g>
      </g>
      <g
         id="PathCollection_2">
        <defs
           id="defs29">
          <path
             id="m7bcf23f437"
             d="M 0 3  C 0.795609 3 1.55874 2.683901 2.12132 2.12132  C 2.683901 1.55874 3 0.795609 3 0  C 3 -0.795609 2.683901 -1.55874 2.12132 -2.12132  C 1.55874 -2.683901 0.795609 -3 0 -3  C -0.795609 -3 -1.55874 -2.683901 -2.12132 -2.12132  C -2.683901 -1.55874 -3 -0.795609 -3 0  C -3 0.795609 -2.683901 1.55874 -2.12132 2.12132  C -1.55874 2.683901 -0.795609 3 0 3  z "
             style="stroke: #ff7f0e" />
        </defs>
        <g
           clip-path="url(#pc9e30ce141)"
           id="g39">
          <use
             xlink:href="#m7bcf23f437"
             x="81.617683"
             y="157.33693"
             style="fill: #ff7f0e; stroke: #ff7f0e"
             id="use31" />
          <use
             xlink:href="#m7bcf23f437"
             x="79.025482"
             y="216.243448"
             style="fill: #ff7f0e; stroke: #ff7f0e"
             id="use33" />
          <use
             xlink:href="#m7bcf23f437"
             x="73.832727"
             y="188.383226"
             style="fill: #ff7f0e; stroke: #ff7f0e"
             id="use35" />
          <use
             xlink:href="#m7bcf23f437"
             x="81.602311"
             y="169.840887"
             style="fill: #ff7f0e; stroke: #ff7f0e"
             id="use37" />
        </g>
      </g>
      <g
         id="PathCollection_3" />
      <g
         id="PathCollection_4" />
      <g
         id="matplotlib.axis_1">
        <g
           id="xtick_1">
          <g
             id="line2d_1">
            <defs
               id="defs45">
              <path
                 id="m023b1ac659"
                 d="M 0 0  L 0 3.5  "
                 style="stroke: #000000; stroke-width: 0.8" />
            </defs>
            <g
               id="g49">
              <use
                 xlink:href="#m023b1ac659"
                 x="103.446231"
                 y="307.584"
                 style="stroke: #000000; stroke-width: 0.8"
                 id="use47" />
            </g>
          </g>
          <g
             id="text_1">
            <!-- −40 -->
            <g
               transform="translate(92.893888 322.182437) scale(0.1 -0.1)"
               id="g63">
              <defs
                 id="defs55">
                <path
                   id="DejaVuSans-2212"
                   d="M 678 2272  L 4684 2272  L 4684 1741  L 678 1741  L 678 2272  z "
                   transform="scale(0.015625)" />
                <path
                   id="DejaVuSans-34"
                   d="M 2419 4116  L 825 1625  L 2419 1625  L 2419 4116  z M 2253 4666  L 3047 4666  L 3047 1625  L 3713 1625  L 3713 1100  L 3047 1100  L 3047 0  L 2419 0  L 2419 1100  L 313 1100  L 313 1709  L 2253 4666  z "
                   transform="scale(0.015625)" />
                <path
                   id="DejaVuSans-30"
                   d="M 2034 4250  Q 1547 4250 1301 3770  Q 1056 3291 1056 2328  Q 1056 1369 1301 889  Q 1547 409 2034 409  Q 2525 409 2770 889  Q 3016 1369 3016 2328  Q 3016 3291 2770 3770  Q 2525 4250 2034 4250  z M 2034 4750  Q 2819 4750 3233 4129  Q 3647 3509 3647 2328  Q 3647 1150 3233 529  Q 2819 -91 2034 -91  Q 1250 -91 836 529  Q 422 1150 422 2328  Q 422 3509 836 4129  Q 1250 4750 2034 4750  z "
                   transform="scale(0.015625)" />
              </defs>
              <use
                 xlink:href="#DejaVuSans-2212"
                 id="use57" />
              <use
                 xlink:href="#DejaVuSans-34"
                 x="83.789062"
                 id="use59" />
              <use
                 xlink:href="#DejaVuSans-30"
                 x="147.412109"
                 id="use61" />
            </g>
          </g>
        </g>
        <g
           id="xtick_2">
          <g
             id="line2d_2">
            <g
               id="g69">
              <use
                 xlink:href="#m023b1ac659"
                 x="166.326983"
                 y="307.584"
                 style="stroke: #000000; stroke-width: 0.8"
                 id="use67" />
            </g>
          </g>
          <g
             id="text_2">
            <!-- −20 -->
            <g
               transform="translate(155.774639 322.182437) scale(0.1 -0.1)"
               id="g81">
              <defs
                 id="defs73">
                <path
                   id="DejaVuSans-32"
                   d="M 1228 531  L 3431 531  L 3431 0  L 469 0  L 469 531  Q 828 903 1448 1529  Q 2069 2156 2228 2338  Q 2531 2678 2651 2914  Q 2772 3150 2772 3378  Q 2772 3750 2511 3984  Q 2250 4219 1831 4219  Q 1534 4219 1204 4116  Q 875 4013 500 3803  L 500 4441  Q 881 4594 1212 4672  Q 1544 4750 1819 4750  Q 2544 4750 2975 4387  Q 3406 4025 3406 3419  Q 3406 3131 3298 2873  Q 3191 2616 2906 2266  Q 2828 2175 2409 1742  Q 1991 1309 1228 531  z "
                   transform="scale(0.015625)" />
              </defs>
              <use
                 xlink:href="#DejaVuSans-2212"
                 id="use75" />
              <use
                 xlink:href="#DejaVuSans-32"
                 x="83.789062"
                 id="use77" />
              <use
                 xlink:href="#DejaVuSans-30"
                 x="147.412109"
                 id="use79" />
            </g>
          </g>
        </g>
        <g
           id="xtick_3">
          <g
             id="line2d_3">
            <g
               id="g87">
              <use
                 xlink:href="#m023b1ac659"
                 x="229.207734"
                 y="307.584"
                 style="stroke: #000000; stroke-width: 0.8"
                 id="use85" />
            </g>
          </g>
          <g
             id="text_3">
            <!-- 0 -->
            <g
               transform="translate(226.026484 322.182437) scale(0.1 -0.1)"
               id="g92">
              <use
                 xlink:href="#DejaVuSans-30"
                 id="use90" />
            </g>
          </g>
        </g>
        <g
           id="xtick_4">
          <g
             id="line2d_4">
            <g
               id="g98">
              <use
                 xlink:href="#m023b1ac659"
                 x="292.088485"
                 y="307.584"
                 style="stroke: #000000; stroke-width: 0.8"
                 id="use96" />
            </g>
          </g>
          <g
             id="text_4">
            <!-- 20 -->
            <g
               transform="translate(285.725985 322.182437) scale(0.1 -0.1)"
               id="g105">
              <use
                 xlink:href="#DejaVuSans-32"
                 id="use101" />
              <use
                 xlink:href="#DejaVuSans-30"
                 x="63.623047"
                 id="use103" />
            </g>
          </g>
        </g>
        <g
           id="xtick_5">
          <g
             id="line2d_5">
            <g
               id="g111">
              <use
                 xlink:href="#m023b1ac659"
                 x="354.969237"
                 y="307.584"
                 style="stroke: #000000; stroke-width: 0.8"
                 id="use109" />
            </g>
          </g>
          <g
             id="text_5">
            <!-- 40 -->
            <g
               transform="translate(348.606737 322.182437) scale(0.1 -0.1)"
               id="g118">
              <use
                 xlink:href="#DejaVuSans-34"
                 id="use114" />
              <use
                 xlink:href="#DejaVuSans-30"
                 x="63.623047"
                 id="use116" />
            </g>
          </g>
        </g>
        <g
           id="text_6">
          <!-- Component 1 (62.01%) -->
          <g
             transform="translate(177.805312 335.860562) scale(0.1 -0.1)"
             id="g178">
            <defs
               id="defs136">
              <path
                 id="DejaVuSans-43"
                 d="M 4122 4306  L 4122 3641  Q 3803 3938 3442 4084  Q 3081 4231 2675 4231  Q 1875 4231 1450 3742  Q 1025 3253 1025 2328  Q 1025 1406 1450 917  Q 1875 428 2675 428  Q 3081 428 3442 575  Q 3803 722 4122 1019  L 4122 359  Q 3791 134 3420 21  Q 3050 -91 2638 -91  Q 1578 -91 968 557  Q 359 1206 359 2328  Q 359 3453 968 4101  Q 1578 4750 2638 4750  Q 3056 4750 3426 4639  Q 3797 4528 4122 4306  z "
                 transform="scale(0.015625)" />
              <path
                 id="DejaVuSans-6f"
                 d="M 1959 3097  Q 1497 3097 1228 2736  Q 959 2375 959 1747  Q 959 1119 1226 758  Q 1494 397 1959 397  Q 2419 397 2687 759  Q 2956 1122 2956 1747  Q 2956 2369 2687 2733  Q 2419 3097 1959 3097  z M 1959 3584  Q 2709 3584 3137 3096  Q 3566 2609 3566 1747  Q 3566 888 3137 398  Q 2709 -91 1959 -91  Q 1206 -91 779 398  Q 353 888 353 1747  Q 353 2609 779 3096  Q 1206 3584 1959 3584  z "
                 transform="scale(0.015625)" />
              <path
                 id="DejaVuSans-6d"
                 d="M 3328 2828  Q 3544 3216 3844 3400  Q 4144 3584 4550 3584  Q 5097 3584 5394 3201  Q 5691 2819 5691 2113  L 5691 0  L 5113 0  L 5113 2094  Q 5113 2597 4934 2840  Q 4756 3084 4391 3084  Q 3944 3084 3684 2787  Q 3425 2491 3425 1978  L 3425 0  L 2847 0  L 2847 2094  Q 2847 2600 2669 2842  Q 2491 3084 2119 3084  Q 1678 3084 1418 2786  Q 1159 2488 1159 1978  L 1159 0  L 581 0  L 581 3500  L 1159 3500  L 1159 2956  Q 1356 3278 1631 3431  Q 1906 3584 2284 3584  Q 2666 3584 2933 3390  Q 3200 3197 3328 2828  z "
                 transform="scale(0.015625)" />
              <path
                 id="DejaVuSans-70"
                 d="M 1159 525  L 1159 -1331  L 581 -1331  L 581 3500  L 1159 3500  L 1159 2969  Q 1341 3281 1617 3432  Q 1894 3584 2278 3584  Q 2916 3584 3314 3078  Q 3713 2572 3713 1747  Q 3713 922 3314 415  Q 2916 -91 2278 -91  Q 1894 -91 1617 61  Q 1341 213 1159 525  z M 3116 1747  Q 3116 2381 2855 2742  Q 2594 3103 2138 3103  Q 1681 3103 1420 2742  Q 1159 2381 1159 1747  Q 1159 1113 1420 752  Q 1681 391 2138 391  Q 2594 391 2855 752  Q 3116 1113 3116 1747  z "
                 transform="scale(0.015625)" />
              <path
                 id="DejaVuSans-6e"
                 d="M 3513 2113  L 3513 0  L 2938 0  L 2938 2094  Q 2938 2591 2744 2837  Q 2550 3084 2163 3084  Q 1697 3084 1428 2787  Q 1159 2491 1159 1978  L 1159 0  L 581 0  L 581 3500  L 1159 3500  L 1159 2956  Q 1366 3272 1645 3428  Q 1925 3584 2291 3584  Q 2894 3584 3203 3211  Q 3513 2838 3513 2113  z "
                 transform="scale(0.015625)" />
              <path
                 id="DejaVuSans-65"
                 d="M 3597 1894  L 3597 1613  L 953 1613  Q 991 1019 1311 708  Q 1631 397 2203 397  Q 2534 397 2845 478  Q 3156 559 3463 722  L 3463 178  Q 3153 47 2828 -22  Q 2503 -91 2169 -91  Q 1331 -91 842 396  Q 353 884 353 1716  Q 353 2575 817 3079  Q 1281 3584 2069 3584  Q 2775 3584 3186 3129  Q 3597 2675 3597 1894  z M 3022 2063  Q 3016 2534 2758 2815  Q 2500 3097 2075 3097  Q 1594 3097 1305 2825  Q 1016 2553 972 2059  L 3022 2063  z "
                 transform="scale(0.015625)" />
              <path
                 id="DejaVuSans-74"
                 d="M 1172 4494  L 1172 3500  L 2356 3500  L 2356 3053  L 1172 3053  L 1172 1153  Q 1172 725 1289 603  Q 1406 481 1766 481  L 2356 481  L 2356 0  L 1766 0  Q 1100 0 847 248  Q 594 497 594 1153  L 594 3053  L 172 3053  L 172 3500  L 594 3500  L 594 4494  L 1172 4494  z "
                 transform="scale(0.015625)" />
              <path
                 id="DejaVuSans-20"
                 transform="scale(0.015625)" />
              <path
                 id="DejaVuSans-31"
                 d="M 794 531  L 1825 531  L 1825 4091  L 703 3866  L 703 4441  L 1819 4666  L 2450 4666  L 2450 531  L 3481 531  L 3481 0  L 794 0  L 794 531  z "
                 transform="scale(0.015625)" />
              <path
                 id="DejaVuSans-28"
                 d="M 1984 4856  Q 1566 4138 1362 3434  Q 1159 2731 1159 2009  Q 1159 1288 1364 580  Q 1569 -128 1984 -844  L 1484 -844  Q 1016 -109 783 600  Q 550 1309 550 2009  Q 550 2706 781 3412  Q 1013 4119 1484 4856  L 1984 4856  z "
                 transform="scale(0.015625)" />
              <path
                 id="DejaVuSans-36"
                 d="M 2113 2584  Q 1688 2584 1439 2293  Q 1191 2003 1191 1497  Q 1191 994 1439 701  Q 1688 409 2113 409  Q 2538 409 2786 701  Q 3034 994 3034 1497  Q 3034 2003 2786 2293  Q 2538 2584 2113 2584  z M 3366 4563  L 3366 3988  Q 3128 4100 2886 4159  Q 2644 4219 2406 4219  Q 1781 4219 1451 3797  Q 1122 3375 1075 2522  Q 1259 2794 1537 2939  Q 1816 3084 2150 3084  Q 2853 3084 3261 2657  Q 3669 2231 3669 1497  Q 3669 778 3244 343  Q 2819 -91 2113 -91  Q 1303 -91 875 529  Q 447 1150 447 2328  Q 447 3434 972 4092  Q 1497 4750 2381 4750  Q 2619 4750 2861 4703  Q 3103 4656 3366 4563  z "
                 transform="scale(0.015625)" />
              <path
                 id="DejaVuSans-2e"
                 d="M 684 794  L 1344 794  L 1344 0  L 684 0  L 684 794  z "
                 transform="scale(0.015625)" />
              <path
                 id="DejaVuSans-25"
                 d="M 4653 2053  Q 4381 2053 4226 1822  Q 4072 1591 4072 1178  Q 4072 772 4226 539  Q 4381 306 4653 306  Q 4919 306 5073 539  Q 5228 772 5228 1178  Q 5228 1588 5073 1820  Q 4919 2053 4653 2053  z M 4653 2450  Q 5147 2450 5437 2106  Q 5728 1763 5728 1178  Q 5728 594 5436 251  Q 5144 -91 4653 -91  Q 4153 -91 3862 251  Q 3572 594 3572 1178  Q 3572 1766 3864 2108  Q 4156 2450 4653 2450  z M 1428 4353  Q 1159 4353 1004 4120  Q 850 3888 850 3481  Q 850 3069 1003 2837  Q 1156 2606 1428 2606  Q 1700 2606 1854 2837  Q 2009 3069 2009 3481  Q 2009 3884 1853 4118  Q 1697 4353 1428 4353  z M 4250 4750  L 4750 4750  L 1831 -91  L 1331 -91  L 4250 4750  z M 1428 4750  Q 1922 4750 2215 4408  Q 2509 4066 2509 3481  Q 2509 2891 2217 2550  Q 1925 2209 1428 2209  Q 931 2209 642 2551  Q 353 2894 353 3481  Q 353 4063 643 4406  Q 934 4750 1428 4750  z "
                 transform="scale(0.015625)" />
              <path
                 id="DejaVuSans-29"
                 d="M 513 4856  L 1013 4856  Q 1481 4119 1714 3412  Q 1947 2706 1947 2009  Q 1947 1309 1714 600  Q 1481 -109 1013 -844  L 513 -844  Q 928 -128 1133 580  Q 1338 1288 1338 2009  Q 1338 2731 1133 3434  Q 928 4138 513 4856  z "
                 transform="scale(0.015625)" />
            </defs>
            <use
               xlink:href="#DejaVuSans-43"
               id="use138" />
            <use
               xlink:href="#DejaVuSans-6f"
               x="69.824219"
               id="use140" />
            <use
               xlink:href="#DejaVuSans-6d"
               x="131.005859"
               id="use142" />
            <use
               xlink:href="#DejaVuSans-70"
               x="228.417969"
               id="use144" />
            <use
               xlink:href="#DejaVuSans-6f"
               x="291.894531"
               id="use146" />
            <use
               xlink:href="#DejaVuSans-6e"
               x="353.076172"
               id="use148" />
            <use
               xlink:href="#DejaVuSans-65"
               x="416.455078"
               id="use150" />
            <use
               xlink:href="#DejaVuSans-6e"
               x="477.978516"
               id="use152" />
            <use
               xlink:href="#DejaVuSans-74"
               x="541.357422"
               id="use154" />
            <use
               xlink:href="#DejaVuSans-20"
               x="580.566406"
               id="use156" />
            <use
               xlink:href="#DejaVuSans-31"
               x="612.353516"
               id="use158" />
            <use
               xlink:href="#DejaVuSans-20"
               x="675.976562"
               id="use160" />
            <use
               xlink:href="#DejaVuSans-28"
               x="707.763672"
               id="use162" />
            <use
               xlink:href="#DejaVuSans-36"
               x="746.777344"
               id="use164" />
            <use
               xlink:href="#DejaVuSans-32"
               x="810.400391"
               id="use166" />
            <use
               xlink:href="#DejaVuSans-2e"
               x="874.023438"
               id="use168" />
            <use
               xlink:href="#DejaVuSans-30"
               x="905.810547"
               id="use170" />
            <use
               xlink:href="#DejaVuSans-31"
               x="969.433594"
               id="use172" />
            <use
               xlink:href="#DejaVuSans-25"
               x="1033.056641"
               id="use174" />
            <use
               xlink:href="#DejaVuSans-29"
               x="1128.076172"
               id="use176" />
          </g>
        </g>
      </g>
      <g
         id="matplotlib.axis_2">
        <g
           id="ytick_1">
          <g
             id="line2d_6">
            <defs
               id="defs183">
              <path
                 id="m488afaa78b"
                 d="M 0 0  L -3.5 0  "
                 style="stroke: #000000; stroke-width: 0.8" />
            </defs>
            <g
               id="g187">
              <use
                 xlink:href="#m488afaa78b"
                 x="57.6"
                 y="277.093655"
                 style="stroke: #000000; stroke-width: 0.8"
                 id="use185" />
            </g>
          </g>
          <g
             id="text_7">
            <!-- −30 -->
            <g
               transform="translate(29.495313 280.892874) scale(0.1 -0.1)"
               id="g199">
              <defs
                 id="defs191">
                <path
                   id="DejaVuSans-33"
                   d="M 2597 2516  Q 3050 2419 3304 2112  Q 3559 1806 3559 1356  Q 3559 666 3084 287  Q 2609 -91 1734 -91  Q 1441 -91 1130 -33  Q 819 25 488 141  L 488 750  Q 750 597 1062 519  Q 1375 441 1716 441  Q 2309 441 2620 675  Q 2931 909 2931 1356  Q 2931 1769 2642 2001  Q 2353 2234 1838 2234  L 1294 2234  L 1294 2753  L 1863 2753  Q 2328 2753 2575 2939  Q 2822 3125 2822 3475  Q 2822 3834 2567 4026  Q 2313 4219 1838 4219  Q 1578 4219 1281 4162  Q 984 4106 628 3988  L 628 4550  Q 988 4650 1302 4700  Q 1616 4750 1894 4750  Q 2613 4750 3031 4423  Q 3450 4097 3450 3541  Q 3450 3153 3228 2886  Q 3006 2619 2597 2516  z "
                   transform="scale(0.015625)" />
              </defs>
              <use
                 xlink:href="#DejaVuSans-2212"
                 id="use193" />
              <use
                 xlink:href="#DejaVuSans-33"
                 x="83.789062"
                 id="use195" />
              <use
                 xlink:href="#DejaVuSans-30"
                 x="147.412109"
                 id="use197" />
            </g>
          </g>
        </g>
        <g
           id="ytick_2">
          <g
             id="line2d_7">
            <g
               id="g205">
              <use
                 xlink:href="#m488afaa78b"
                 x="57.6"
                 y="244.138596"
                 style="stroke: #000000; stroke-width: 0.8"
                 id="use203" />
            </g>
          </g>
          <g
             id="text_8">
            <!-- −20 -->
            <g
               transform="translate(29.495313 247.937815) scale(0.1 -0.1)"
               id="g214">
              <use
                 xlink:href="#DejaVuSans-2212"
                 id="use208" />
              <use
                 xlink:href="#DejaVuSans-32"
                 x="83.789062"
                 id="use210" />
              <use
                 xlink:href="#DejaVuSans-30"
                 x="147.412109"
                 id="use212" />
            </g>
          </g>
        </g>
        <g
           id="ytick_3">
          <g
             id="line2d_8">
            <g
               id="g220">
              <use
                 xlink:href="#m488afaa78b"
                 x="57.6"
                 y="211.183536"
                 style="stroke: #000000; stroke-width: 0.8"
                 id="use218" />
            </g>
          </g>
          <g
             id="text_9">
            <!-- −10 -->
            <g
               transform="translate(29.495313 214.982755) scale(0.1 -0.1)"
               id="g229">
              <use
                 xlink:href="#DejaVuSans-2212"
                 id="use223" />
              <use
                 xlink:href="#DejaVuSans-31"
                 x="83.789062"
                 id="use225" />
              <use
                 xlink:href="#DejaVuSans-30"
                 x="147.412109"
                 id="use227" />
            </g>
          </g>
        </g>
        <g
           id="ytick_4">
          <g
             id="line2d_9">
            <g
               id="g235">
              <use
                 xlink:href="#m488afaa78b"
                 x="57.6"
                 y="178.228477"
                 style="stroke: #000000; stroke-width: 0.8"
                 id="use233" />
            </g>
          </g>
          <g
             id="text_10">
            <!-- 0 -->
            <g
               transform="translate(44.2375 182.027696) scale(0.1 -0.1)"
               id="g240">
              <use
                 xlink:href="#DejaVuSans-30"
                 id="use238" />
            </g>
          </g>
        </g>
        <g
           id="ytick_5">
          <g
             id="line2d_10">
            <g
               id="g246">
              <use
                 xlink:href="#m488afaa78b"
                 x="57.6"
                 y="145.273418"
                 style="stroke: #000000; stroke-width: 0.8"
                 id="use244" />
            </g>
          </g>
          <g
             id="text_11">
            <!-- 10 -->
            <g
               transform="translate(37.875 149.072636) scale(0.1 -0.1)"
               id="g253">
              <use
                 xlink:href="#DejaVuSans-31"
                 id="use249" />
              <use
                 xlink:href="#DejaVuSans-30"
                 x="63.623047"
                 id="use251" />
            </g>
          </g>
        </g>
        <g
           id="ytick_6">
          <g
             id="line2d_11">
            <g
               id="g259">
              <use
                 xlink:href="#m488afaa78b"
                 x="57.6"
                 y="112.318358"
                 style="stroke: #000000; stroke-width: 0.8"
                 id="use257" />
            </g>
          </g>
          <g
             id="text_12">
            <!-- 20 -->
            <g
               transform="translate(37.875 116.117577) scale(0.1 -0.1)"
               id="g266">
              <use
                 xlink:href="#DejaVuSans-32"
                 id="use262" />
              <use
                 xlink:href="#DejaVuSans-30"
                 x="63.623047"
                 id="use264" />
            </g>
          </g>
        </g>
        <g
           id="ytick_7">
          <g
             id="line2d_12">
            <g
               id="g272">
              <use
                 xlink:href="#m488afaa78b"
                 x="57.6"
                 y="79.363299"
                 style="stroke: #000000; stroke-width: 0.8"
                 id="use270" />
            </g>
          </g>
          <g
             id="text_13">
            <!-- 30 -->
            <g
               transform="translate(37.875 83.162518) scale(0.1 -0.1)"
               id="g279">
              <use
                 xlink:href="#DejaVuSans-33"
                 id="use275" />
              <use
                 xlink:href="#DejaVuSans-30"
                 x="63.623047"
                 id="use277" />
            </g>
          </g>
        </g>
        <g
           id="ytick_8">
          <g
             id="line2d_13">
            <g
               id="g285">
              <use
                 xlink:href="#m488afaa78b"
                 x="57.6"
                 y="46.40824"
                 style="stroke: #000000; stroke-width: 0.8"
                 id="use283" />
            </g>
          </g>
          <g
             id="text_14">
            <!-- 40 -->
            <g
               transform="translate(37.875 50.207458) scale(0.1 -0.1)"
               id="g292">
              <use
                 xlink:href="#DejaVuSans-34"
                 id="use288" />
              <use
                 xlink:href="#DejaVuSans-30"
                 x="63.623047"
                 id="use290" />
            </g>
          </g>
        </g>
        <g
           id="text_15">
          <!-- Component 2 (10.39%) -->
          <g
             transform="translate(23.415625 232.882688) rotate(-90) scale(0.1 -0.1)"
             id="g339">
            <defs
               id="defs297">
              <path
                 id="DejaVuSans-39"
                 d="M 703 97  L 703 672  Q 941 559 1184 500  Q 1428 441 1663 441  Q 2288 441 2617 861  Q 2947 1281 2994 2138  Q 2813 1869 2534 1725  Q 2256 1581 1919 1581  Q 1219 1581 811 2004  Q 403 2428 403 3163  Q 403 3881 828 4315  Q 1253 4750 1959 4750  Q 2769 4750 3195 4129  Q 3622 3509 3622 2328  Q 3622 1225 3098 567  Q 2575 -91 1691 -91  Q 1453 -91 1209 -44  Q 966 3 703 97  z M 1959 2075  Q 2384 2075 2632 2365  Q 2881 2656 2881 3163  Q 2881 3666 2632 3958  Q 2384 4250 1959 4250  Q 1534 4250 1286 3958  Q 1038 3666 1038 3163  Q 1038 2656 1286 2365  Q 1534 2075 1959 2075  z "
                 transform="scale(0.015625)" />
            </defs>
            <use
               xlink:href="#DejaVuSans-43"
               id="use299" />
            <use
               xlink:href="#DejaVuSans-6f"
               x="69.824219"
               id="use301" />
            <use
               xlink:href="#DejaVuSans-6d"
               x="131.005859"
               id="use303" />
            <use
               xlink:href="#DejaVuSans-70"
               x="228.417969"
               id="use305" />
            <use
               xlink:href="#DejaVuSans-6f"
               x="291.894531"
               id="use307" />
            <use
               xlink:href="#DejaVuSans-6e"
               x="353.076172"
               id="use309" />
            <use
               xlink:href="#DejaVuSans-65"
               x="416.455078"
               id="use311" />
            <use
               xlink:href="#DejaVuSans-6e"
               x="477.978516"
               id="use313" />
            <use
               xlink:href="#DejaVuSans-74"
               x="541.357422"
               id="use315" />
            <use
               xlink:href="#DejaVuSans-20"
               x="580.566406"
               id="use317" />
            <use
               xlink:href="#DejaVuSans-32"
               x="612.353516"
               id="use319" />
            <use
               xlink:href="#DejaVuSans-20"
               x="675.976562"
               id="use321" />
            <use
               xlink:href="#DejaVuSans-28"
               x="707.763672"
               id="use323" />
            <use
               xlink:href="#DejaVuSans-31"
               x="746.777344"
               id="use325" />
            <use
               xlink:href="#DejaVuSans-30"
               x="810.400391"
               id="use327" />
            <use
               xlink:href="#DejaVuSans-2e"
               x="874.023438"
               id="use329" />
            <use
               xlink:href="#DejaVuSans-33"
               x="905.810547"
               id="use331" />
            <use
               xlink:href="#DejaVuSans-39"
               x="969.433594"
               id="use333" />
            <use
               xlink:href="#DejaVuSans-25"
               x="1033.056641"
               id="use335" />
            <use
               xlink:href="#DejaVuSans-29"
               x="1128.076172"
               id="use337" />
          </g>
        </g>
      </g>
      <g
         id="patch_3">
        <path
           d="M 57.6 307.584  L 57.6 41.472  "
           style="fill: none; stroke: #000000; stroke-width: 0.8; stroke-linejoin: miter; stroke-linecap: square"
           id="path343" />
      </g>
      <g
         id="patch_4">
        <path
           d="M 414.72 307.584  L 414.72 41.472  "
           style="fill: none; stroke: #000000; stroke-width: 0.8; stroke-linejoin: miter; stroke-linecap: square"
           id="path346" />
      </g>
      <g
         id="patch_5">
        <path
           d="M 57.6 307.584  L 414.72 307.584  "
           style="fill: none; stroke: #000000; stroke-width: 0.8; stroke-linejoin: miter; stroke-linecap: square"
           id="path349" />
      </g>
      <g
         id="patch_6">
        <path
           d="M 57.6 41.472  L 414.72 41.472  "
           style="fill: none; stroke: #000000; stroke-width: 0.8; stroke-linejoin: miter; stroke-linecap: square"
           id="path352" />
      </g>
    </g>
  </g>
  <defs
     id="defs360">
    <clipPath
       id="pc9e30ce141">
      <rect
         x="57.6"
         y="41.472"
         width="357.12"
         height="266.112"
         id="rect357" />
    </clipPath>
  </defs>
  <ellipse
     style="opacity:1;fill:#1f77b4;fill-opacity:0.20297;stroke:#1f77b4;stroke-width:0.37551525;stroke-linecap:round;stroke-linejoin:round;stroke-miterlimit:4;stroke-dasharray:none;stroke-opacity:1"
     id="path1189"
     transform="matrix(0.96377939,-0.26670073,0.19464238,0.98087428,0,0)"
     ry="132.75844"
     rx="28.130428"
     cy="269.22559"
     cx="333.47729" />
  <ellipse
     style="opacity:1;fill:#ff7f0e;fill-opacity:0.2;stroke:#ff7f0e;stroke-width:0.373262;stroke-linecap:round;stroke-linejoin:round;stroke-miterlimit:4;stroke-dasharray:none;stroke-opacity:1"
     id="ellipse1191"
     transform="matrix(0.99994747,-0.01024967,-0.06378212,0.99796385,0,0)"
     ry="37.448322"
     rx="15.471413"
     cy="187.38901"
     cx="92.156837" />
  <text
     xml:space="preserve"
     style="font-size:9.99998px;line-height:1.25;font-family:Arial;-inkscape-font-specification:Arial;letter-spacing:0px;word-spacing:0px;stroke-width:0.75"
     x="324.06158"
     y="196.11882"
     id="text1195"><tspan
       sodipodi:role="line"
       id="tspan1193"
       x="324.06158"
       y="196.11882"
       style="font-style:normal;font-variant:normal;font-weight:normal;font-stretch:normal;font-family:'DejaVu Sans';-inkscape-font-specification:'DejaVu Sans';stroke-width:0.75">AKI</tspan></text>
  <text
     xml:space="preserve"
     style="font-size:9.99998px;line-height:1.25;font-family:Arial;-inkscape-font-specification:Arial;letter-spacing:0px;word-spacing:0px;stroke-width:0.75"
     x="101.53558"
     y="188.06879"
     id="text1199"><tspan
       sodipodi:role="line"
       id="tspan1197"
       x="101.53558"
       y="188.06879"
       style="font-style:normal;font-variant:normal;font-weight:normal;font-stretch:normal;font-family:'DejaVu Sans';-inkscape-font-specification:'DejaVu Sans';stroke-width:0.75">Control</tspan></text>
</svg>
